<svg xmlns="http://www.w3.org/2000/svg" viewBox="0 0 764 1226" width="764px" height="1226px" role="img" aria-label="PenEcho MCP 架构 · 本地自动布局" style="font-family: Arial, &quot;PingFang SC&quot;, &quot;Microsoft YaHei&quot;, sans-serif; background: white;"><style style="">.semantic-sigil{fill:none;stroke:currentColor;stroke-width:1.25;opacity:.55}.sigil-fill{fill:currentColor;stroke:none}[data-node-id]:focus{outline:none}[data-node-id]:focus [data-node-box],[data-node-id][data-selected] [data-node-box]{stroke-width:3}</style><defs style=""><marker id="arch-0-arrow" viewBox="0 0 10 8" markerWidth="8" markerHeight="7" refX="9" refY="4" orient="auto-start-reverse" markerUnits="userSpaceOnUse" style=""><path d="M0 0 L10 4 L0 8 Z" fill="#65748a" style=""/></marker></defs><g data-group-id="host" style=""><rect x="24" y="236" width="716" height="564" rx="10" fill="#fff7ed" fill-opacity=".65" stroke="#c65316" stroke-width="1.2" stroke-dasharray="6 5" style=""/><text x="38" y="261" text-anchor="start" fill="#c65316" font-size="14" font-weight="600" style="">PenEcho Node 宿主 · 同一进程</text></g><g data-group-id="browser-scope" style=""><rect x="323" y="889" width="386" height="313" rx="10" fill="#f0fbf4" fill-opacity=".65" stroke="#17814a" stroke-width="1.2" stroke-dasharray="6 5" style=""/><text x="435" y="914" text-anchor="start" fill="#17814a" font-size="14" font-weight="600" style="">已授权浏览器</text></g><path data-edge-id="e_0" data-from="client" data-to="stdio" d="M 425 104 L 425 128" fill="none" stroke="#65748a" stroke-width="1.5" marker-end="url(#arch-0-arrow)" style=""/><path data-edge-id="e_1" data-from="stdio" data-to="https" d="M 425 204 L 425 300" fill="none" stroke="#65748a" stroke-width="1.5" marker-end="url(#arch-0-arrow)" style=""/><path data-edge-id="e_2" data-from="https" data-to="rpc" d="M 425 376 L 425 400" fill="none" stroke="#65748a" stroke-width="1.5" marker-end="url(#arch-0-arrow)" style=""/><path data-edge-id="e_3" data-from="rpc" data-to="dispatch" d="M 425 476 L 425 500" fill="none" stroke="#65748a" stroke-width="1.5" marker-end="url(#arch-0-arrow)" style=""/><path data-edge-id="e_4" data-from="dispatch" data-to="operations" d="M 425 576 L 425 600" fill="none" stroke="#65748a" stroke-width="1.5" marker-end="url(#arch-0-arrow)" style=""/><path data-edge-id="e_5" data-from="operations" data-to="browser" d="M 425 676 L 425 953" fill="none" stroke="#65748a" stroke-width="1.5" marker-end="url(#arch-0-arrow)" style=""/><path data-edge-id="e_6" data-from="browser" data-to="widget" d="M 425 1029 L 425 1102" fill="none" stroke="#65748a" stroke-width="1.5" marker-end="url(#arch-0-arrow)" style=""/><path data-edge-id="e_7" data-from="rpc" data-to="guidance" d="M 425 476 L 425 481 Q 425 486 420 486 L 143 486 Q 137 486 137 492 L 137 600" fill="none" stroke="#65748a" stroke-width="1.5" marker-end="url(#arch-0-arrow)" style=""/><path data-edge-id="e_8" data-from="dispatch" data-to="binding" d="M 425 576 L 425 581 Q 425 586 420 586 L 324 586 Q 318 586 318 592 L 318 700" fill="none" stroke="#65748a" stroke-width="1.5" marker-end="url(#arch-0-arrow)" style=""/><path data-edge-id="e_9" data-from="agent" data-to="operations" d="M 625 476 L 625 580 Q 625 586 619 586 L 431 586 Q 425 586 425 592 L 425 600" fill="none" stroke="#65748a" stroke-width="1.5" stroke-dasharray="5 4" marker-end="url(#arch-0-arrow)" style=""/><path data-edge-id="e_10" data-from="direct" data-to="https" d="M 618 104 L 618 208 Q 618 214 612 214 L 431 214 Q 425 214 425 220 L 425 300" fill="none" stroke="#65748a" stroke-width="1.5" marker-end="url(#arch-0-arrow)" style=""/><path data-edge-id="e_11" data-from="browser" data-to="documents" d="M 425 1029 L 425 1034 Q 425 1039 430 1039 L 603 1039 Q 609 1039 609 1045 L 609 1102" fill="none" stroke="#65748a" stroke-width="1.5" marker-end="url(#arch-0-arrow)" style=""/><g data-node-id="https" tabindex="0" role="button" aria-label="HTTPS MCP 接入" style="cursor: pointer; color: rgb(198, 83, 22);"><title style="">HTTPS MCP 接入</title><rect data-node-box="" x="344" y="300" width="161" height="76" rx="7" fill="#fff7ed" stroke="#c65316" stroke-width="1.5" style=""/><g aria-hidden="true" data-semantic-sigil="backend" class="semantic-sigil s-backend" transform="translate(350 305) scale(0.625)" style="">
            <path d="M6 3 3 8l3 5M10 3l3 5-3 5" style=""/>
          </g><text x="424.5" y="333" text-anchor="middle" fill="#c65316" font-size="16" font-weight="600" style="">HTTPS MCP 接入</text><text x="424.5" y="357" text-anchor="middle" fill="#526277" font-size="12" font-weight="400" style="">认证 · 传输会话</text></g><g data-node-id="rpc" tabindex="0" role="button" aria-label="RPC / Schema" style="cursor: pointer; color: rgb(198, 83, 22);"><title style="">RPC / Schema</title><rect data-node-box="" x="347" y="400" width="156" height="76" rx="7" fill="#fff7ed" stroke="#c65316" stroke-width="1.5" style=""/><g aria-hidden="true" data-semantic-sigil="backend" class="semantic-sigil s-backend" transform="translate(353 405) scale(0.625)" style="">
            <path d="M6 3 3 8l3 5M10 3l3 5-3 5" style=""/>
          </g><text x="425" y="433" text-anchor="middle" fill="#c65316" font-size="16" font-weight="600" style="">RPC / Schema</text><text x="425" y="457" text-anchor="middle" fill="#526277" font-size="12" font-weight="400" style="">协议分发 · 输入校验</text></g><g data-node-id="dispatch" tabindex="0" role="button" aria-label="会话与工具分派" style="cursor: pointer; color: rgb(198, 83, 22);"><title style="">会话与工具分派</title><rect data-node-box="" x="347" y="500" width="156" height="76" rx="7" fill="#fff7ed" stroke="#c65316" stroke-width="1.5" style=""/><g aria-hidden="true" data-semantic-sigil="backend" class="semantic-sigil s-backend" transform="translate(353 505) scale(0.625)" style="">
            <path d="M6 3 3 8l3 5M10 3l3 5-3 5" style=""/>
          </g><text x="425" y="533" text-anchor="middle" fill="#c65316" font-size="16" font-weight="600" style="">会话与工具分派</text><text x="425" y="557" text-anchor="middle" fill="#526277" font-size="12" font-weight="400" style="">绑定浏览器与文档</text></g><g data-node-id="operations" tabindex="0" role="button" aria-label="共用画布操作" style="cursor: pointer; color: rgb(198, 83, 22);"><title style="">共用画布操作</title><rect data-node-box="" x="347" y="600" width="156" height="76" rx="7" fill="#fff7ed" stroke="#c65316" stroke-width="1.5" style=""/><g aria-hidden="true" data-semantic-sigil="backend" class="semantic-sigil s-backend" transform="translate(353 605) scale(0.625)" style="">
            <path d="M6 3 3 8l3 5M10 3l3 5-3 5" style=""/>
          </g><text x="425" y="633" text-anchor="middle" fill="#c65316" font-size="16" font-weight="600" style="">共用画布操作</text><text x="425" y="657" text-anchor="middle" fill="#526277" font-size="12" font-weight="400" style="">版本 · 幂等 · 虚拟读写</text></g><g data-node-id="guidance" tabindex="0" role="button" aria-label="authoring-guidance" style="cursor: pointer; color: rgb(117, 64, 213);"><title style="">authoring-guidance</title><rect data-node-box="" x="46" y="600" width="182" height="76" rx="7" fill="#f7f2ff" stroke="#7540d5" stroke-width="1.5" style=""/><g aria-hidden="true" data-semantic-sigil="database" class="semantic-sigil s-database" transform="translate(52 605) scale(0.625)" style="">
            <ellipse cx="8" cy="4" rx="5" ry="2" style=""/>
            <path d="M3 4v8c0 1.1 2.2 2 5 2s5-.9 5-2V4M3 8c0 1.1 2.2 2 5 2s5-.9 5-2" style=""/>
          </g><text x="137" y="633" text-anchor="middle" fill="#7540d5" font-size="16" font-weight="600" style="">authoring-guidance</text><text x="137" y="657" text-anchor="middle" fill="#526277" font-size="12" font-weight="400" style="">规则文件 · 只读</text></g><g data-node-id="binding" tabindex="0" role="button" aria-label="持久会话绑定" style="cursor: pointer; color: rgb(117, 64, 213);"><title style="">持久会话绑定</title><rect data-node-box="" x="240" y="700" width="156" height="76" rx="7" fill="#f7f2ff" stroke="#7540d5" stroke-width="1.5" style=""/><g aria-hidden="true" data-semantic-sigil="database" class="semantic-sigil s-database" transform="translate(246 705) scale(0.625)" style="">
            <ellipse cx="8" cy="4" rx="5" ry="2" style=""/>
            <path d="M3 4v8c0 1.1 2.2 2 5 2s5-.9 5-2V4M3 8c0 1.1 2.2 2 5 2s5-.9 5-2" style=""/>
          </g><text x="318" y="733" text-anchor="middle" fill="#7540d5" font-size="16" font-weight="600" style="">持久会话绑定</text><text x="318" y="757" text-anchor="middle" fill="#526277" font-size="12" font-weight="400" style="">Node 侧存储</text></g><g data-node-id="agent" tabindex="0" role="button" aria-label="PenEcho 内置 Agent" style="cursor: pointer; color: rgb(93, 107, 128);"><title style="">PenEcho 内置 Agent</title><rect data-node-box="" x="531" y="400" width="187" height="76" rx="7" fill="#f7f9fc" stroke="#5d6b80" stroke-width="1.5" style=""/><g aria-hidden="true" data-semantic-sigil="external" class="semantic-sigil s-external" transform="translate(537 405) scale(0.625)" style="">
            <rect x="2.5" y="5" width="8.5" height="8" rx="1.5" style=""/>
            <path d="M8 2.5h5.5V8M13.5 2.5 7.5 8.5" style=""/>
          </g><text x="624.5" y="433" text-anchor="middle" fill="#5d6b80" font-size="16" font-weight="600" style="">PenEcho 内置 Agent</text><text x="624.5" y="457" text-anchor="middle" fill="#526277" font-size="12" font-weight="400" style="">独立会话绑定 · 非必经</text></g><g data-node-id="browser" tabindex="0" role="button" aria-label="浏览器文档运行时" style="cursor: pointer; color: rgb(23, 129, 74);"><title style="">浏览器文档运行时</title><rect data-node-box="" x="345" y="953" width="160" height="76" rx="7" fill="#f0fbf4" stroke="#17814a" stroke-width="1.5" style=""/><g aria-hidden="true" data-semantic-sigil="security" class="semantic-sigil s-security" transform="translate(351 958) scale(0.625)" style="">
            <path d="M8 2.2 13 4v3.5c0 3.1-1.8 5.4-5 6.5-3.2-1.1-5-3.4-5-6.5V4Z" style=""/>
            <path d="m5.8 8 1.5 1.5 3-3" style=""/>
          </g><text x="425" y="986" text-anchor="middle" fill="#17814a" font-size="16" font-weight="600" style="">浏览器文档运行时</text><text x="425" y="1010" text-anchor="middle" fill="#526277" font-size="12" font-weight="400" style="">WebSocket 画布通道</text></g><g data-node-id="widget" tabindex="0" role="button" aria-label="Widget Host" style="cursor: pointer; color: rgb(23, 129, 74);"><title style="">Widget Host</title><rect data-node-box="" x="347" y="1102" width="156" height="76" rx="7" fill="#f0fbf4" stroke="#17814a" stroke-width="1.5" style=""/><g aria-hidden="true" data-semantic-sigil="security" class="semantic-sigil s-security" transform="translate(353 1107) scale(0.625)" style="">
            <path d="M8 2.2 13 4v3.5c0 3.1-1.8 5.4-5 6.5-3.2-1.1-5-3.4-5-6.5V4Z" style=""/>
            <path d="m5.8 8 1.5 1.5 3-3" style=""/>
          </g><text x="425" y="1135" text-anchor="middle" fill="#17814a" font-size="16" font-weight="600" style="">Widget Host</text><text x="425" y="1159" text-anchor="middle" fill="#526277" font-size="12" font-weight="400" style="">沙箱 iframe 渲染</text></g><g data-node-id="documents" tabindex="0" role="button" aria-label="文档与快照" style="cursor: pointer; color: rgb(23, 129, 74);"><title style="">文档与快照</title><rect data-node-box="" x="531" y="1102" width="156" height="76" rx="7" fill="#f0fbf4" stroke="#17814a" stroke-width="1.5" style=""/><g aria-hidden="true" data-semantic-sigil="security" class="semantic-sigil s-security" transform="translate(537 1107) scale(0.625)" style="">
            <path d="M8 2.2 13 4v3.5c0 3.1-1.8 5.4-5 6.5-3.2-1.1-5-3.4-5-6.5V4Z" style=""/>
            <path d="m5.8 8 1.5 1.5 3-3" style=""/>
          </g><text x="609" y="1135" text-anchor="middle" fill="#17814a" font-size="16" font-weight="600" style="">文档与快照</text><text x="609" y="1159" text-anchor="middle" fill="#526277" font-size="12" font-weight="400" style="">浏览器持有</text></g><g data-node-id="client" tabindex="0" role="button" aria-label="外部 AI 客户端" style="cursor: pointer; color: rgb(49, 94, 234);"><title style="">外部 AI 客户端</title><rect data-node-box="" x="347" y="28" width="156" height="76" rx="7" fill="#f2f6ff" stroke="#315eea" stroke-width="1.5" style=""/><g aria-hidden="true" data-semantic-sigil="frontend" class="semantic-sigil s-frontend" transform="translate(353 33) scale(0.625)" style="">
            <rect x="2" y="3" width="12" height="10" rx="2" style=""/>
            <path d="M2 6.5h12" style=""/>
            <circle cx="4.1" cy="4.8" r=".7" class="sigil-fill" style=""/>
            <circle cx="6.3" cy="4.8" r=".7" class="sigil-fill" style=""/>
          </g><text x="425" y="61" text-anchor="middle" fill="#315eea" font-size="16" font-weight="600" style="">外部 AI 客户端</text><text x="425" y="85" text-anchor="middle" fill="#526277" font-size="12" font-weight="400" style="">调用工具</text></g><g data-node-id="stdio" tabindex="0" role="button" aria-label="stdio 桥接进程" style="cursor: pointer; color: rgb(8, 127, 136);"><title style="">stdio 桥接进程</title><rect data-node-box="" x="347" y="128" width="156" height="76" rx="7" fill="#effbfa" stroke="#087f88" stroke-width="1.5" style=""/><g aria-hidden="true" data-semantic-sigil="cloud" class="semantic-sigil s-cloud" transform="translate(353 133) scale(0.625)" style="">
            <path d="M4.3 12.5h7.3a2.4 2.4 0 0 0 .2-4.8 4 4 0 0 0-7.5-1.3A3.1 3.1 0 0 0 4.3 12.5Z" style=""/>
          </g><text x="425" y="161" text-anchor="middle" fill="#087f88" font-size="16" font-weight="600" style="">stdio 桥接进程</text><text x="425" y="185" text-anchor="middle" fill="#526277" font-size="12" font-weight="400" style="">TLS 校验 · 连接复用</text></g><g data-node-id="direct" tabindex="0" role="button" aria-label="直接 HTTPS 客户端" style="cursor: pointer; color: rgb(49, 94, 234);"><title style="">直接 HTTPS 客户端</title><rect data-node-box="" x="531" y="28" width="174" height="76" rx="7" fill="#f2f6ff" stroke="#315eea" stroke-width="1.5" style=""/><g aria-hidden="true" data-semantic-sigil="frontend" class="semantic-sigil s-frontend" transform="translate(537 33) scale(0.625)" style="">
            <rect x="2" y="3" width="12" height="10" rx="2" style=""/>
            <path d="M2 6.5h12" style=""/>
            <circle cx="4.1" cy="4.8" r=".7" class="sigil-fill" style=""/>
            <circle cx="6.3" cy="4.8" r=".7" class="sigil-fill" style=""/>
          </g><text x="618" y="61" text-anchor="middle" fill="#315eea" font-size="16" font-weight="600" style="">直接 HTTPS 客户端</text><text x="618" y="85" text-anchor="middle" fill="#526277" font-size="12" font-weight="400" style="">不经 stdio 桥</text></g><g data-edge-label="e_5" style=""><rect x="352" y="832" width="71" height="25" rx="3" fill="white" fill-opacity=".97" style=""/><text x="387.5" y="848" text-anchor="middle" fill="#526277" font-size="12" font-weight="400" style="">canvasCall</text></g><g data-edge-label="e_6" style=""><rect x="387" y="1053" width="36" height="25" rx="3" fill="white" fill-opacity=".97" style=""/><text x="405" y="1069" text-anchor="middle" fill="#526277" font-size="12" font-weight="400" style="">渲染</text></g><g data-edge-label="e_7" style=""><rect x="75" y="525.5" width="60" height="25" rx="3" fill="white" fill-opacity=".97" style=""/><text x="105" y="541.5" text-anchor="middle" fill="#526277" font-size="12" font-weight="400" style="">只读分支</text></g><g data-edge-label="e_8" style=""><rect x="256" y="625.5" width="60" height="25" rx="3" fill="white" fill-opacity=".97" style=""/><text x="286" y="641.5" text-anchor="middle" fill="#526277" font-size="12" font-weight="400" style="">读写绑定</text></g><g data-edge-label="e_9" style=""><rect x="628" y="525.5" width="36" height="25" rx="3" fill="white" fill-opacity=".97" style=""/><text x="646" y="541.5" text-anchor="middle" fill="#526277" font-size="12" font-weight="400" style="">复用</text></g><g data-edge-label="e_10" style=""><rect x="621" y="153.5" width="84" height="25" rx="3" fill="white" fill-opacity=".97" style=""/><text x="663" y="169.5" text-anchor="middle" fill="#526277" font-size="12" font-weight="400" style="">同一接入端点</text></g><g data-edge-label="e_11" style=""><rect x="612" y="1053" width="71" height="25" rx="3" fill="white" fill-opacity=".97" style=""/><text x="647.5" y="1069" text-anchor="middle" fill="#526277" font-size="12" font-weight="400" style="">管理 / 执行</text></g></svg>